<svg version="1.1" xmlns="http://www.w3.org/2000/svg" viewBox="500 455 1055 1045" preserveAspectRatio="xMidYMid meet">
<path fill="#F7ECC5" d="M 1112.72 481.972 L 1346.58 482.01 C 1317.04 511.941 1285.48 541.52 1255.38 571.152 L 937.246 876.923 C 851.399 960.124 764.395 1048.48 677.297 1129.85 C 679.055 1047.01 677.892 960.865 677.891 877.784 L 677.75 482.021 L 900.314 482.023 C 867.71 566.196 839.551 653.706 807.092 738.055 C 796.003 766.869 785.506 796.474 773.243 824.791 C 783.28 813.883 795.548 802.599 806.151 791.718 C 833.883 762.933 861.925 734.448 890.271 706.268 C 963.853 632.996 1041.18 556.901 1112.72 481.972 z"/>
<path fill="#F7ECC5" d="M 1070.38 771.887 L 1384.1 1126.17 C 1339.81 1124.18 1284.65 1125.51 1239.5 1125.53 L 1112.75 1125.68 C 1062.42 1070.41 1014.48 1012.57 964.184 957.212 C 951.171 942.889 937.883 927.89 925.834 912.789 C 937.025 900.829 950.395 888.97 961.99 877.186 C 997.02 841.587 1035.52 807.368 1070.38 771.887 z"/>
<path fill="#F7ECC5" fill-rule="evenodd" d="M 1381.56 1213.36 C 1412.28 1208.12 1438.67 1217.42 1462.69 1235.79 L 1462.86 1218.8 L 1521.15 1218.99 L 1521.07 1468.61 C 1503.15 1467.88 1480.21 1467.99 1462.37 1468.42 L 1461.93 1440.67 C 1460.94 1441.9 1459.93 1443.11 1458.89 1444.3 C 1423.33 1485.16 1358.67 1484.36 1319.07 1449.77 C 1316.3 1446.92 1313.32 1443.88 1310.87 1440.76 C 1297.19 1423.37 1291.03 1401.23 1293.75 1379.27 C 1302.92 1303.41 1398.39 1302.23 1456.13 1309.38 C 1452.12 1273.42 1431.86 1261.58 1396.62 1263.79 C 1376.62 1265.05 1362.79 1275.4 1350.23 1290.54 C 1333.92 1280.58 1316.08 1270.79 1299.41 1261.29 C 1323.43 1232.02 1343.14 1218.38 1381.56 1213.36 z M 1402.45 1348.36 C 1415.2 1346.37 1442.28 1348.22 1455.57 1349.09 C 1455.32 1385.78 1452.69 1410.95 1411.41 1422.32 C 1397.5 1424.24 1382.62 1424.1 1370.57 1415.91 C 1362.54 1410.51 1357.18 1401.95 1355.83 1392.36 C 1351.49 1363.03 1378.42 1351.34 1402.45 1348.36 z"/>
<path fill="#F7ECC5" fill-rule="evenodd" d="M 886.558 1212.43 C 887.39 1212.41 888.222 1212.4 889.054 1212.41 C 963.668 1213.12 1006.19 1268.19 1007.99 1339.97 C 1008.18 1347.67 1008.03 1355.41 1007.98 1363.11 C 950.43 1363.48 888.523 1361.79 831.346 1363.55 C 834.896 1385.5 843.738 1404.79 864.419 1415.23 C 894.197 1430.27 932.464 1416.24 947.118 1386.94 C 957.765 1392.69 968.514 1398.24 979.361 1403.61 C 987.187 1407.64 994.176 1411.66 1001.75 1416.07 C 998.447 1420.63 994.916 1425.55 991.299 1429.84 C 969.25 1455.72 937.87 1471.84 903.992 1474.69 C 869.928 1477.55 836.445 1468.12 810.653 1445.58 C 737.11 1381.3 756.313 1241.56 856.677 1216.35 C 867.304 1213.68 875.68 1213.01 886.558 1212.43 z M 888.271 1262.4 C 924.671 1262.87 936.35 1284.42 943.524 1315.36 C 925.676 1315.63 907.826 1315.79 889.976 1315.85 C 870.718 1315.86 851.46 1315.75 832.204 1315.51 C 839.564 1284.78 854.271 1265.01 888.271 1262.4 z"/>
<path fill="#F7ECC5" d="M 537.581 1111.91 L 602.057 1112.11 L 600.729 1308.22 L 682.278 1218.49 C 708.849 1219.3 738.185 1218.65 764.959 1218.57 C 735.892 1249.15 706.557 1278.02 677.65 1309.27 C 703.449 1348.49 728.294 1389.62 753.392 1429.45 C 762.003 1442.23 770.209 1455.87 778.336 1469.02 C 754.592 1467.89 727.87 1468.35 703.95 1468.3 C 684.014 1432.58 656.778 1391.19 634.663 1355.79 C 623.465 1366.94 612.003 1379.41 601.057 1390.92 L 600.938 1468.86 C 580.035 1467.94 558.151 1468.26 537.163 1468.31 C 537.881 1438.86 537.095 1409.05 537.443 1379.58 C 538.49 1290.79 536.076 1200.55 537.581 1111.91 z"/>
<path fill="#F7ECC5" d="M 1154.02 1213.36 C 1158.45 1212.92 1162.9 1212.7 1167.35 1212.71 C 1192.36 1212.6 1214.2 1221.24 1231.95 1239.01 C 1243.88 1250.92 1252.35 1265.85 1256.45 1282.2 C 1262.82 1306.69 1261.12 1346.48 1261.06 1373.25 L 1260.95 1468.67 C 1240.39 1467.74 1218.16 1468.19 1197.46 1468.25 C 1197.98 1438.68 1197.48 1408.56 1197.67 1378.92 C 1197.15 1358.56 1198.71 1337.86 1196.61 1317.58 C 1192.29 1276.06 1165.21 1258.19 1126.96 1276.03 C 1123.56 1278.42 1121.05 1280.23 1118.11 1283.22 C 1110.3 1291.13 1104.71 1300.96 1101.91 1311.71 C 1097.68 1328.58 1098.95 1362.08 1098.95 1380.98 L 1099.02 1468.56 C 1078.41 1467.87 1056.76 1468.3 1036.06 1468.43 L 1035.34 1218.56 C 1056.05 1218.83 1076.77 1218.86 1097.49 1218.66 L 1097.21 1245.39 C 1113.84 1226.15 1128.71 1216.97 1154.02 1213.36 z"/>
</svg>
