<svg version="1.1" xmlns="http://www.w3.org/2000/svg" viewBox="640 448 780 715" preserveAspectRatio="xMidYMid meet">
<path fill="#70011F" d="M 1112.72 481.972 L 1346.58 482.01 C 1317.04 511.941 1285.48 541.52 1255.38 571.152 L 937.246 876.923 C 851.399 960.124 764.395 1048.48 677.297 1129.85 C 679.055 1047.01 677.892 960.865 677.891 877.784 L 677.75 482.021 L 900.314 482.023 C 867.71 566.196 839.551 653.706 807.092 738.055 C 796.003 766.869 785.506 796.474 773.243 824.791 C 783.28 813.883 795.548 802.599 806.151 791.718 C 833.883 762.933 861.925 734.448 890.271 706.268 C 963.853 632.996 1041.18 556.901 1112.72 481.972 z"/>
<path fill="#70011F" d="M 1070.38 771.887 L 1384.1 1126.17 C 1339.81 1124.18 1284.65 1125.51 1239.5 1125.53 L 1112.75 1125.68 C 1062.42 1070.41 1014.48 1012.57 964.184 957.212 C 951.171 942.889 937.883 927.89 925.834 912.789 C 937.025 900.829 950.395 888.97 961.99 877.186 C 997.02 841.587 1035.52 807.368 1070.38 771.887 z"/>
</svg>
